Patient4_TMGait_0pt4_02_right_31_EMG.mot
version=1
nRows=20
nColumns=33
inDegrees=no
endheader
time	1LAddLong	2LGlutMax	3LGlutMed	4LIliopsoas	5LSemiMemb	6LBicFemLong	7LRecFem	8LVastMed	9LVastLat	10LGasMed	11LTibAnt	12lTibPost	13LPeroneusLong	14LSol	15LExtDigLong	16LFlexDigLong	17RAddLong	18RGlutMax	19RGlutMed	20RIliopsoas	21RSemiMemb	22RBicFemLong	23RRecFem	24RVastMed	25RVastLat	26RGasMed	27RTibAnt	28RTibPost	29RPeroneusLong	30RSol	31RExtDigLong	32RFlexDigLong
41.347	0.003052	-0.16617	-0.014648	0.009308	-0.002441	-0.037994	0.10239	0.002136	0.11124	0.011749	-0.033112	0.011597	-0.018158	0.12253	0.041962	0.019226	0.076752	-1.0385	-0.065613	-0.031281	-0.112	-0.2124	0.4895	0.10162	0.039215	-0.014343	-0.02655	0.22964	0.44907	-0.021057	-0.003357	-0.009918
41.348	-0.040741	-0.14175	-0.044098	0.010986	-0.004578	-0.043793	0.077972	0.00824	0.096741	0.016327	-0.037231	0.023499	-0.008698	0.11536	0.045319	-0.010071	0.12253	-0.90012	0.36163	-0.085907	0.08606	-0.21744	0.5365	0.00885	0.028381	-0.067139	-0.021362	-0.070343	0.31158	0.13977	-0.004578	-0.009613
41.349	-0.03006	-0.15671	-0.070648	0.017395	0.006409	-0.044098	0.03479	0.006866	0.097046	0.007019	-0.003052	0.011444	-0.03418	0.14221	0.0177	-0.012207	0.059814	-0.87067	0.20157	-0.12161	-0.000916	-0.058289	0.44159	-0.041199	0.031891	-0.065918	-0.013885	0.32577	0.1268	0.3302	-0.001678	-0.006866
41.35	-0.014191	-0.12207	-0.085297	0.005188	0.013123	-0.045013	-0.034943	0.002594	0.11261	-0.002136	0.11337	0.013733	-0.054474	0.15366	-0.003204	-0.005493	-0.10284	-0.81833	0.62225	-0.028381	-0.07431	-0.036774	0.42602	0.071106	0.054016	-0.03891	0.011292	0.32684	0.087738	0.57053	-0.001984	-0.00946
41.351	-0.003815	-0.11429	-0.079803	-0.004425	-0.000153	-0.039215	-0.05127	-0.002136	0.11002	-0.010376	0.13565	0.00885	-0.043488	0.12451	-0.031433	-0.008392	-0.085907	-0.90546	0.21759	0.007629	-0.25589	-0.092621	0.40527	-0.10971	0.079956	-0.033569	0.053406	0.10178	-0.054474	0.25131	-0.001831	-0.011139
41.352	-0.007019	-0.099945	-0.12329	-0.007782	0.007629	-0.046082	0.005188	-0.000305	0.10284	-0.003815	0.040741	0.014496	-0.023651	0.14084	-0.065155	-0.010071	-0.062561	-0.99426	-0.37231	0.069275	0.37552	-0.20157	0.45609	-0.072174	0.028992	-0.020294	0.06134	-0.003815	0.13214	-0.29007	0.000305	-0.004578
41.353	-0.007935	-0.060272	-0.16174	-0.006104	0.015106	-0.033112	0.067291	0.001831	0.12054	-0.001373	0.00412	0.011139	-0.016327	0.077362	-0.11444	-0.012207	-0.034943	-1.1029	-0.62714	0.068665	0.51727	-0.23834	0.40649	-0.081329	-0.012665	-0.00061	0.11902	-0.032043	0.35858	-0.19257	0.002441	-0.000763
41.354	-0.001373	-0.089264	-0.1857	0.000916	0.010223	-0.040283	0.093536	-0.010986	0.11795	0.000305	0.007019	0.009155	-0.006256	0.076294	-0.072174	-0.013885	-0.023804	-1.2656	-0.51086	0.067902	0.33905	-0.24933	0.27588	-0.03067	0.022736	0.019684	0.15167	-0.016632	0.2948	0.14954	-0.005188	-0.001221
41.355	-0.000458	-0.088348	-0.20981	0.010986	-0.010681	-0.0383	0.067444	-0.001068	0.11444	0.019531	-0.020447	0.005951	-0.016174	0.063477	-0.036621	-0.027161	-0.013123	-1.4304	-0.7988	0.090942	0.39063	-0.11688	0.27618	-0.045624	0.030212	0.024109	0.039825	0.069427	0.80841	-0.13534	0.001526	-0.010681
41.356	0.001373	-0.058441	-0.22201	0.009766	0.016937	-0.039063	0.1001	-0.016174	0.11414	0.02655	-0.032959	0.001831	-0.051422	0.028839	-0.020294	-0.029297	-0.01709	-1.6556	-1.257	0.016174	0.21271	-0.085144	0.18753	0.010529	0.016937	0.028229	-0.080261	-0.027924	0.27817	-0.70023	-0.001068	-0.010986
41.357	0.008392	-0.059357	-0.21942	0.016937	0.012207	-0.048523	0.20767	-0.009766	0.12146	0.021515	-0.049286	0.012817	-0.048218	0.001221	0.25711	-0.025482	0.002289	-1.8642	-0.9903	0.043182	-0.092163	-0.12634	0.18509	-0.0383	0.018158	0.037689	-0.005798	-0.072174	-1.198	-0.30106	-0.003204	-0.00946
41.358	-0.000305	-0.066376	-0.19486	0.02655	-0.006561	-0.026703	0.19104	-0.007477	0.14526	0.019073	-0.08606	0.001678	-0.029755	0.017242	0.33218	-0.019684	-0.008698	-2.0676	-0.29388	0.0354	-0.42389	-0.090027	0.14282	-0.052032	0.050964	0.046844	0.023193	-0.061951	-1.0788	0.20142	-0.001526	-0.020142
41.359	0.003662	-0.059509	-0.15656	0.014496	0.014496	-0.035858	0.095215	0	0.13504	-0.015259	-0.022888	0.00351	-0.020599	0.049744	0.10788	-0.017242	-0.054779	-2.0518	0.1828	-0.059662	-0.17456	-0.059357	0.1294	0.13489	0.11032	0.041199	0.018768	-0.054169	-0.65277	0.21408	0.002747	-0.025787
41.36	0.009766	-0.048065	-0.15533	-0.00061	-0.01709	-0.045471	-0.001831	0.000305	0.14557	-0.035248	0.019073	-0.00061	0.001068	0.091705	0.002899	-0.030365	-0.062256	-2.0508	0.62668	0.057373	0.11383	0.099792	0.13565	0.29999	0.16541	0.027313	0.051575	-0.039215	-0.41824	0.26962	0.000763	-0.024567
41.361	0.004425	-0.075226	-0.13901	0.004272	-0.003204	-0.03479	-0.076904	-0.001526	0.14984	-0.032501	-0.004578	0.001068	0.067749	0.16632	-0.16068	-0.018768	-0.040283	-1.998	-0.42496	-0.059814	0.17166	0.16922	0.15091	0.1387	0.094604	0.025787	0.051575	-0.017853	-0.38727	0.29724	-0.002136	-0.023499
41.362	0.007629	-0.044403	-0.11719	0	0.008087	-0.028839	-0.045319	0.005951	0.15366	-0.001678	-0.048523	0.005341	0.063019	0.18906	0.055084	-0.019836	-0.032501	-1.96	-1.1076	-0.068817	0.045624	0.12161	0.22537	0.001221	0.062256	-0.007935	-0.00824	-0.029907	0.72739	0.23148	-0.001068	-0.00824
41.363	-0.001526	-0.024872	-0.090179	0.024109	-0.011597	-0.035095	0.005341	0.003967	0.15671	0.024719	0.032349	-0.000763	-0.035858	0.13901	0.16586	-0.02655	-0.03067	-1.7947	-1.1545	0.13519	0.13596	0.10483	0.23468	-0.047455	-0.001068	-0.048523	-0.045013	-0.029449	0.67978	0.17883	-0.002289	0
41.364	0	-0.019836	-0.066071	0.04364	-0.001831	-0.031738	0.028229	0.001831	0.17258	0.029602	0.057526	-0.00351	-0.058441	0.11612	-0.053101	-0.037231	-0.027466	-1.6391	-1.3629	0.2507	0.30456	0.14206	0.14999	-0.014343	-0.096588	-0.031738	0.036774	-0.026398	0.27847	0.058899	-0.002441	0.00061
41.365	-0.00473	-0.034637	-0.080566	0.036926	-0.008545	-0.038757	0.030212	-0.004425	0.17822	-0.024719	0.22644	0.001068	-0.010834	0.10086	-0.083618	-0.016327	0.002747	-1.5887	-0.9404	0.15152	0.15045	0.12772	0.039825	-0.041962	-0.11185	-0.006866	0.072327	-0.02182	0.36484	-0.006561	-0.001831	0.009003
41.366	-0.002441	-0.054016	-0.085754	0.006256	0.006256	-0.045319	0.082397	-0.003357	0.16876	-0.004883	0.29205	0	-0.033722	0.11139	-0.32501	-0.012207	-0.00824	-1.644	-0.57388	0.07019	0.10834	0.09552	-0.20416	-0.057983	-0.11017	0.010529	0.095825	-0.027466	0.37964	-0.017548	-0.001068	0.010681
